%TF.GenerationSoftware,KiCad,Pcbnew,(5.0.0)*%
%TF.CreationDate,2019-01-27T03:15:10+01:00*%
%TF.ProjectId,AtmegaBreakout,41746D656761427265616B6F75742E6B,rev?*%
%TF.SameCoordinates,Original*%
%TF.FileFunction,Copper,L2,Inr,Signal*%
%TF.FilePolarity,Positive*%
%FSLAX46Y46*%
G04 Gerber Fmt 4.6, Leading zero omitted, Abs format (unit mm)*
G04 Created by KiCad (PCBNEW (5.0.0)) date 01/27/19 03:15:10*
%MOMM*%
%LPD*%
G01*
G04 APERTURE LIST*
%ADD10C,0.200000*%
%ADD11C,8.000000*%
%ADD12R,1.700000X1.700000*%
%ADD13O,1.700000X1.700000*%
%ADD14C,0.800000*%
%ADD15C,0.250000*%
G04 APERTURE END LIST*
D10*
X142240000Y-58420000D02*
X142240000Y-106680000D01*
X74930000Y-55880000D02*
X139700000Y-55880000D01*
X72390000Y-106680000D02*
X72390000Y-58420000D01*
X139700000Y-109220000D02*
X74930000Y-109220000D01*
X72390000Y-58420000D02*
G75*
G02X74930000Y-55880000I2540000J0D01*
G01*
X74930000Y-109220000D02*
G75*
G02X72390000Y-106680000I0J2540000D01*
G01*
X142240000Y-106680000D02*
G75*
G02X139700000Y-109220000I-2540000J0D01*
G01*
X139700000Y-55880000D02*
G75*
G02X142240000Y-58420000I0J-2540000D01*
G01*
D11*
X137160000Y-104140000D03*
X137160000Y-60960000D03*
X77470000Y-104140000D03*
X77470000Y-60960000D03*
D12*
X106680000Y-64770000D03*
D13*
X106680000Y-62230000D03*
X109220000Y-64770000D03*
X109220000Y-62230000D03*
X111760000Y-64770000D03*
X111760000Y-62230000D03*
X114300000Y-64770000D03*
X114300000Y-62230000D03*
X116840000Y-64770000D03*
X116840000Y-62230000D03*
X119380000Y-64770000D03*
X119380000Y-62230000D03*
X121920000Y-64770000D03*
X121920000Y-62230000D03*
X124460000Y-64770000D03*
X124460000Y-62230000D03*
D12*
X80010000Y-73660000D03*
D13*
X82550000Y-73660000D03*
X80010000Y-76200000D03*
X82550000Y-76200000D03*
X80010000Y-78740000D03*
X82550000Y-78740000D03*
X80010000Y-81280000D03*
X82550000Y-81280000D03*
X80010000Y-83820000D03*
X82550000Y-83820000D03*
X80010000Y-86360000D03*
X82550000Y-86360000D03*
X80010000Y-88900000D03*
X82550000Y-88900000D03*
X80010000Y-91440000D03*
X82550000Y-91440000D03*
D12*
X93980000Y-73660000D03*
D13*
X96520000Y-73660000D03*
X93980000Y-76200000D03*
X96520000Y-76200000D03*
X93980000Y-78740000D03*
X96520000Y-78740000D03*
X93980000Y-81280000D03*
X96520000Y-81280000D03*
X93980000Y-83820000D03*
X96520000Y-83820000D03*
X93980000Y-86360000D03*
X96520000Y-86360000D03*
X93980000Y-88900000D03*
X96520000Y-88900000D03*
X93980000Y-91440000D03*
X96520000Y-91440000D03*
D12*
X133350000Y-73660000D03*
D13*
X135890000Y-73660000D03*
X133350000Y-76200000D03*
X135890000Y-76200000D03*
X133350000Y-78740000D03*
X135890000Y-78740000D03*
X133350000Y-81280000D03*
X135890000Y-81280000D03*
X133350000Y-83820000D03*
X135890000Y-83820000D03*
X133350000Y-86360000D03*
X135890000Y-86360000D03*
X133350000Y-88900000D03*
X135890000Y-88900000D03*
X133350000Y-91440000D03*
X135890000Y-91440000D03*
D12*
X124460000Y-100330000D03*
D13*
X124460000Y-102870000D03*
X121920000Y-100330000D03*
X121920000Y-102870000D03*
X119380000Y-100330000D03*
X119380000Y-102870000D03*
X116840000Y-100330000D03*
X116840000Y-102870000D03*
X114300000Y-100330000D03*
X114300000Y-102870000D03*
X111760000Y-100330000D03*
X111760000Y-102870000D03*
X109220000Y-100330000D03*
X109220000Y-102870000D03*
X106680000Y-100330000D03*
X106680000Y-102870000D03*
D14*
X102196100Y-81280000D03*
X92439300Y-83725300D03*
X136933700Y-82550000D03*
X110550800Y-77308400D03*
X118132500Y-77548000D03*
X82721900Y-60574100D03*
X116040600Y-87969100D03*
X96137000Y-102278700D03*
X109261200Y-107352800D03*
X112268400Y-88959300D03*
X111768000Y-76563200D03*
X109870600Y-76565000D03*
X104808300Y-86974000D03*
X120985800Y-81895900D03*
X120973800Y-82909900D03*
X110237500Y-79730100D03*
X91337500Y-76200000D03*
X109130100Y-81307100D03*
X118643000Y-88586100D03*
X119118400Y-79409200D03*
X118378300Y-92643500D03*
X101939300Y-76808500D03*
X87835700Y-62055600D03*
X101477800Y-79748800D03*
X108319200Y-83893000D03*
X99524700Y-86971700D03*
X101552900Y-100316400D03*
X115674700Y-89238700D03*
X114667800Y-88694500D03*
X114866200Y-92051200D03*
X120992200Y-86393000D03*
X130810000Y-86360000D03*
X119634000Y-87122000D03*
X119380000Y-85725000D03*
X119431300Y-84644000D03*
X120987000Y-78790800D03*
X121408400Y-74228300D03*
X120643000Y-98934500D03*
X123698900Y-79393000D03*
X113755100Y-89235000D03*
X108327900Y-85893000D03*
X117628500Y-91964600D03*
X117143000Y-89207900D03*
X107330800Y-75341200D03*
X115394800Y-71544100D03*
X115348100Y-76563200D03*
X116136500Y-78058600D03*
X117299200Y-76569200D03*
X87140000Y-101344300D03*
X84727500Y-67029700D03*
X96003400Y-67417700D03*
X85210500Y-63165700D03*
X82083500Y-66826200D03*
X87122000Y-65024000D03*
X87376000Y-57658000D03*
X97519400Y-60289700D03*
X85541300Y-67933300D03*
X98438600Y-60815100D03*
X83972700Y-66348700D03*
X87560900Y-99395700D03*
X90801400Y-66702800D03*
D15*
X109220000Y-100330000D02*
X108044700Y-100330000D01*
X102196100Y-85020300D02*
X93484500Y-85020300D01*
X93484500Y-85020300D02*
X92439300Y-83975100D01*
X92439300Y-83975100D02*
X92439300Y-83725300D01*
X108044700Y-100330000D02*
X108044700Y-100697300D01*
X108044700Y-100697300D02*
X107228700Y-101513300D01*
X107228700Y-101513300D02*
X106111600Y-101513300D01*
X106111600Y-101513300D02*
X102196100Y-97597800D01*
X102196100Y-97597800D02*
X102196100Y-85020300D01*
X102196100Y-85020300D02*
X102196100Y-81280000D01*
X82550000Y-90075300D02*
X82917300Y-90075300D01*
X82917300Y-90075300D02*
X83757900Y-90915900D01*
X83757900Y-90915900D02*
X83757900Y-97852100D01*
X83757900Y-97852100D02*
X77470000Y-104140000D01*
X82550000Y-88900000D02*
X82550000Y-90075300D01*
X77470000Y-60960000D02*
X77470000Y-88099000D01*
X77470000Y-88099000D02*
X79446300Y-90075300D01*
X79446300Y-90075300D02*
X80566800Y-90075300D01*
X80566800Y-90075300D02*
X81374700Y-89267400D01*
X81374700Y-89267400D02*
X81374700Y-88900000D01*
X82550000Y-88900000D02*
X81374700Y-88900000D01*
X137160000Y-82550000D02*
X136933700Y-82550000D01*
X137160000Y-60960000D02*
X137160000Y-82550000D01*
X137160000Y-82550000D02*
X137160000Y-104140000D01*
X80010000Y-88900000D02*
X80010000Y-87724700D01*
X80010000Y-87724700D02*
X80377400Y-87724700D01*
X80377400Y-87724700D02*
X81185300Y-86916800D01*
X81185300Y-86916800D02*
X81185300Y-64189100D01*
X81185300Y-64189100D02*
X82721900Y-62652500D01*
X82721900Y-62652500D02*
X82721900Y-60574100D01*
X112268400Y-88959300D02*
X112268400Y-88802200D01*
X112268400Y-88802200D02*
X108604700Y-85138500D01*
X108604700Y-85138500D02*
X108055000Y-85138500D01*
X108055000Y-85138500D02*
X107600600Y-85592900D01*
X107600600Y-85592900D02*
X107600600Y-86255400D01*
X107600600Y-86255400D02*
X110413200Y-89068000D01*
X110413200Y-89068000D02*
X110413200Y-106200800D01*
X110413200Y-106200800D02*
X109261200Y-107352800D01*
X111768000Y-76563200D02*
X111768000Y-68493300D01*
X111768000Y-68493300D02*
X109220000Y-65945300D01*
X109220000Y-64770000D02*
X109220000Y-65945300D01*
X106680000Y-64770000D02*
X106680000Y-65945300D01*
X106680000Y-65945300D02*
X109870600Y-69135900D01*
X109870600Y-69135900D02*
X109870600Y-76565000D01*
X91337500Y-76200000D02*
X92607500Y-74930000D01*
X92607500Y-74930000D02*
X102171100Y-74930000D01*
X102171100Y-74930000D02*
X102998400Y-74102700D01*
X102998400Y-74102700D02*
X107833800Y-74102700D01*
X107833800Y-74102700D02*
X109130100Y-75399000D01*
X109130100Y-75399000D02*
X109130100Y-81307100D01*
X119118400Y-79409200D02*
X118643000Y-79884600D01*
X118643000Y-79884600D02*
X118643000Y-88586100D01*
X80010000Y-73660000D02*
X80010000Y-64537100D01*
X80010000Y-64537100D02*
X81974100Y-62573000D01*
X81974100Y-62573000D02*
X81974100Y-60224100D01*
X81974100Y-60224100D02*
X82397900Y-59800300D01*
X82397900Y-59800300D02*
X85580400Y-59800300D01*
X85580400Y-59800300D02*
X87835700Y-62055600D01*
X93980000Y-78740000D02*
X95155300Y-78740000D01*
X95155300Y-78740000D02*
X95155300Y-78372600D01*
X95155300Y-78372600D02*
X95963200Y-77564700D01*
X95963200Y-77564700D02*
X103370900Y-77564700D01*
X103370900Y-77564700D02*
X106341600Y-74594000D01*
X106341600Y-74594000D02*
X107660100Y-74594000D01*
X107660100Y-74594000D02*
X108319200Y-75253100D01*
X108319200Y-75253100D02*
X108319200Y-83893000D01*
X96520000Y-87535300D02*
X96887400Y-87535300D01*
X96887400Y-87535300D02*
X101552900Y-92200800D01*
X101552900Y-92200800D02*
X101552900Y-100316400D01*
X96520000Y-86360000D02*
X96520000Y-87535300D01*
X124460000Y-101694700D02*
X123652000Y-101694700D01*
X123652000Y-101694700D02*
X123244800Y-101287500D01*
X123244800Y-101287500D02*
X123244800Y-79847100D01*
X123244800Y-79847100D02*
X123698900Y-79393000D01*
X124460000Y-102870000D02*
X124460000Y-101694700D01*
X116840000Y-101694700D02*
X116472600Y-101694700D01*
X116472600Y-101694700D02*
X115664700Y-100886800D01*
X115664700Y-100886800D02*
X115664700Y-91144600D01*
X115664700Y-91144600D02*
X113755100Y-89235000D01*
X116840000Y-102870000D02*
X116840000Y-101694700D01*
X114300000Y-102870000D02*
X114300000Y-101694700D01*
X108327900Y-85893000D02*
X108327900Y-86044500D01*
X108327900Y-86044500D02*
X113124700Y-90841300D01*
X113124700Y-90841300D02*
X113124700Y-100886800D01*
X113124700Y-100886800D02*
X113932600Y-101694700D01*
X113932600Y-101694700D02*
X114300000Y-101694700D01*
X106680000Y-100330000D02*
X106680000Y-75992000D01*
X106680000Y-75992000D02*
X107330800Y-75341200D01*
X119380000Y-62230000D02*
X119380000Y-63405300D01*
X119380000Y-63405300D02*
X119012600Y-63405300D01*
X119012600Y-63405300D02*
X118204700Y-64213200D01*
X118204700Y-64213200D02*
X118204700Y-68734200D01*
X118204700Y-68734200D02*
X115394800Y-71544100D01*
X121920000Y-64770000D02*
X121920000Y-69991300D01*
X121920000Y-69991300D02*
X115348100Y-76563200D01*
X116136500Y-78058600D02*
X116136500Y-76698900D01*
X116136500Y-76698900D02*
X124460000Y-68375400D01*
X124460000Y-68375400D02*
X124460000Y-64770000D01*
X124460000Y-62230000D02*
X124460000Y-63405300D01*
X124460000Y-63405300D02*
X124827300Y-63405300D01*
X124827300Y-63405300D02*
X125669200Y-64247200D01*
X125669200Y-64247200D02*
X125669200Y-71037100D01*
X125669200Y-71037100D02*
X118402100Y-78304200D01*
X118402100Y-78304200D02*
X117851600Y-78304200D01*
X117851600Y-78304200D02*
X117299200Y-77751800D01*
X117299200Y-77751800D02*
X117299200Y-76569200D01*
X87140000Y-101344300D02*
X84727500Y-98931800D01*
X84727500Y-98931800D02*
X84727500Y-67029700D01*
X84727500Y-67029700D02*
X84727500Y-65590600D01*
X85210500Y-63165700D02*
X85210500Y-65107600D01*
X85210500Y-65107600D02*
X84727500Y-65590600D01*
X84727500Y-65590600D02*
X83319100Y-65590600D01*
X83319100Y-65590600D02*
X82083500Y-66826200D01*
X88609001Y-63536999D02*
X88609001Y-58891001D01*
X87122000Y-65024000D02*
X88609001Y-63536999D01*
X88609001Y-58891001D02*
X87376000Y-57658000D01*
X87376000Y-57658000D02*
X87376000Y-57658000D01*
X85541300Y-67933300D02*
X93184900Y-60289700D01*
X93184900Y-60289700D02*
X97519400Y-60289700D01*
X90801400Y-66702800D02*
X87560900Y-69943300D01*
X87560900Y-69943300D02*
X87560900Y-99395700D01*
M02*
