%TF.GenerationSoftware,KiCad,Pcbnew,(5.0.0)*%
%TF.CreationDate,2019-01-27T03:15:10+01:00*%
%TF.ProjectId,AtmegaBreakout,41746D656761427265616B6F75742E6B,rev?*%
%TF.SameCoordinates,Original*%
%TF.FileFunction,Soldermask,Bot*%
%TF.FilePolarity,Negative*%
%FSLAX46Y46*%
G04 Gerber Fmt 4.6, Leading zero omitted, Abs format (unit mm)*
G04 Created by KiCad (PCBNEW (5.0.0)) date 01/27/19 03:15:10*
%MOMM*%
%LPD*%
G01*
G04 APERTURE LIST*
%ADD10C,0.200000*%
%ADD11C,8.400000*%
%ADD12R,2.100000X2.100000*%
%ADD13O,2.100000X2.100000*%
G04 APERTURE END LIST*
D10*
X142240000Y-58420000D02*
X142240000Y-106680000D01*
X74930000Y-55880000D02*
X139700000Y-55880000D01*
X72390000Y-106680000D02*
X72390000Y-58420000D01*
X139700000Y-109220000D02*
X74930000Y-109220000D01*
X72390000Y-58420000D02*
G75*
G02X74930000Y-55880000I2540000J0D01*
G01*
X74930000Y-109220000D02*
G75*
G02X72390000Y-106680000I0J2540000D01*
G01*
X142240000Y-106680000D02*
G75*
G02X139700000Y-109220000I-2540000J0D01*
G01*
X139700000Y-55880000D02*
G75*
G02X142240000Y-58420000I0J-2540000D01*
G01*
D11*
X137160000Y-104140000D03*
X137160000Y-60960000D03*
X77470000Y-104140000D03*
X77470000Y-60960000D03*
D12*
X106680000Y-64770000D03*
D13*
X106680000Y-62230000D03*
X109220000Y-64770000D03*
X109220000Y-62230000D03*
X111760000Y-64770000D03*
X111760000Y-62230000D03*
X114300000Y-64770000D03*
X114300000Y-62230000D03*
X116840000Y-64770000D03*
X116840000Y-62230000D03*
X119380000Y-64770000D03*
X119380000Y-62230000D03*
X121920000Y-64770000D03*
X121920000Y-62230000D03*
X124460000Y-64770000D03*
X124460000Y-62230000D03*
D12*
X80010000Y-73660000D03*
D13*
X82550000Y-73660000D03*
X80010000Y-76200000D03*
X82550000Y-76200000D03*
X80010000Y-78740000D03*
X82550000Y-78740000D03*
X80010000Y-81280000D03*
X82550000Y-81280000D03*
X80010000Y-83820000D03*
X82550000Y-83820000D03*
X80010000Y-86360000D03*
X82550000Y-86360000D03*
X80010000Y-88900000D03*
X82550000Y-88900000D03*
X80010000Y-91440000D03*
X82550000Y-91440000D03*
D12*
X93980000Y-73660000D03*
D13*
X96520000Y-73660000D03*
X93980000Y-76200000D03*
X96520000Y-76200000D03*
X93980000Y-78740000D03*
X96520000Y-78740000D03*
X93980000Y-81280000D03*
X96520000Y-81280000D03*
X93980000Y-83820000D03*
X96520000Y-83820000D03*
X93980000Y-86360000D03*
X96520000Y-86360000D03*
X93980000Y-88900000D03*
X96520000Y-88900000D03*
X93980000Y-91440000D03*
X96520000Y-91440000D03*
D12*
X133350000Y-73660000D03*
D13*
X135890000Y-73660000D03*
X133350000Y-76200000D03*
X135890000Y-76200000D03*
X133350000Y-78740000D03*
X135890000Y-78740000D03*
X133350000Y-81280000D03*
X135890000Y-81280000D03*
X133350000Y-83820000D03*
X135890000Y-83820000D03*
X133350000Y-86360000D03*
X135890000Y-86360000D03*
X133350000Y-88900000D03*
X135890000Y-88900000D03*
X133350000Y-91440000D03*
X135890000Y-91440000D03*
D12*
X124460000Y-100330000D03*
D13*
X124460000Y-102870000D03*
X121920000Y-100330000D03*
X121920000Y-102870000D03*
X119380000Y-100330000D03*
X119380000Y-102870000D03*
X116840000Y-100330000D03*
X116840000Y-102870000D03*
X114300000Y-100330000D03*
X114300000Y-102870000D03*
X111760000Y-100330000D03*
X111760000Y-102870000D03*
X109220000Y-100330000D03*
X109220000Y-102870000D03*
X106680000Y-100330000D03*
X106680000Y-102870000D03*
M02*
