M48
;DRILL file {KiCad (5.0.0)} date 01/27/19 03:15:55
;FORMAT={-:-/ absolute / inch / decimal}
FMAT,2
INCH,TZ
T1C0.0157
T2C0.0394
T3C0.1575
%
G90
G05
M72
T1
X3.2316Y-2.631
X3.2568Y-2.3848
X3.306Y-2.6122
X3.3357Y-2.639
X3.3547Y-2.4868
X3.3678Y-2.6745
X3.43Y-2.56
X3.4307Y-3.9899
X3.44Y-2.27
X3.4473Y-3.9132
X3.4581Y-2.4431
X3.5749Y-2.6261
X3.596Y-3.
X3.6393Y-3.2963
X3.7797Y-2.6542
X3.7849Y-4.0267
X3.8393Y-2.3736
X3.8755Y-2.3943
X3.9183Y-3.4241
X3.9952Y-3.1397
X3.9981Y-3.9495
X4.0134Y-3.024
X4.0235Y-3.2
X4.1263Y-3.4242
X4.2256Y-2.9662
X4.2645Y-3.3029
X4.2649Y-3.3816
X4.2965Y-3.2011
X4.3016Y-4.2265
X4.3256Y-3.0144
X4.3401Y-3.139
X4.3524Y-3.0436
X4.4003Y-3.0143
X4.42Y-3.5023
X4.4785Y-3.5132
X4.5145Y-3.4919
X4.5223Y-3.6241
X4.5413Y-3.0143
X4.5431Y-2.8167
X4.5541Y-3.5133
X4.5685Y-3.4634
X4.5723Y-3.0732
X4.6119Y-3.5121
X4.6181Y-3.0145
X4.631Y-3.6207
X4.6509Y-3.0531
X4.6606Y-3.6474
X4.671Y-3.4876
X4.6897Y-3.1263
X4.7Y-3.375
X4.702Y-3.3324
X4.71Y-3.43
X4.7497Y-3.8951
X4.7627Y-3.2642
X4.7632Y-3.2242
X4.7633Y-3.102
X4.7635Y-3.4013
X4.7799Y-2.9224
X4.87Y-3.1257
X5.15Y-3.4
X5.3911Y-3.25
T2
X5.25Y-2.9
X5.25Y-3.
X5.25Y-3.1
X5.25Y-3.2
X5.25Y-3.3
X5.25Y-3.4
X5.25Y-3.5
X5.25Y-3.6
X5.35Y-2.9
X5.35Y-3.
X5.35Y-3.1
X5.35Y-3.2
X5.35Y-3.3
X5.35Y-3.4
X5.35Y-3.5
X5.35Y-3.6
X4.2Y-3.95
X4.2Y-4.05
X4.3Y-3.95
X4.3Y-4.05
X4.4Y-3.95
X4.4Y-4.05
X4.5Y-3.95
X4.5Y-4.05
X4.6Y-3.95
X4.6Y-4.05
X4.7Y-3.95
X4.7Y-4.05
X4.8Y-3.95
X4.8Y-4.05
X4.9Y-3.95
X4.9Y-4.05
X3.15Y-2.9
X3.15Y-3.
X3.15Y-3.1
X3.15Y-3.2
X3.15Y-3.3
X3.15Y-3.4
X3.15Y-3.5
X3.15Y-3.6
X3.25Y-2.9
X3.25Y-3.
X3.25Y-3.1
X3.25Y-3.2
X3.25Y-3.3
X3.25Y-3.4
X3.25Y-3.5
X3.25Y-3.6
X4.2Y-2.45
X4.2Y-2.55
X4.3Y-2.45
X4.3Y-2.55
X4.4Y-2.45
X4.4Y-2.55
X4.5Y-2.45
X4.5Y-2.55
X4.6Y-2.45
X4.6Y-2.55
X4.7Y-2.45
X4.7Y-2.55
X4.8Y-2.45
X4.8Y-2.55
X4.9Y-2.45
X4.9Y-2.55
X3.7Y-2.9
X3.7Y-3.
X3.7Y-3.1
X3.7Y-3.2
X3.7Y-3.3
X3.7Y-3.4
X3.7Y-3.5
X3.7Y-3.6
X3.8Y-2.9
X3.8Y-3.
X3.8Y-3.1
X3.8Y-3.2
X3.8Y-3.3
X3.8Y-3.4
X3.8Y-3.5
X3.8Y-3.6
T3
X3.05Y-4.1
X5.4Y-2.4
X3.05Y-2.4
X5.4Y-4.1
T0
M30
