%TF.GenerationSoftware,KiCad,Pcbnew,(5.0.0)*%
%TF.CreationDate,2019-01-27T03:15:10+01:00*%
%TF.ProjectId,AtmegaBreakout,41746D656761427265616B6F75742E6B,rev?*%
%TF.SameCoordinates,Original*%
%TF.FileFunction,Paste,Top*%
%TF.FilePolarity,Positive*%
%FSLAX46Y46*%
G04 Gerber Fmt 4.6, Leading zero omitted, Abs format (unit mm)*
G04 Created by KiCad (PCBNEW (5.0.0)) date 01/27/19 03:15:10*
%MOMM*%
%LPD*%
G01*
G04 APERTURE LIST*
%ADD10C,0.200000*%
%ADD11R,0.780000X0.780000*%
%ADD12R,0.300000X0.850000*%
%ADD13R,0.850000X0.300000*%
%ADD14R,1.300000X1.500000*%
%ADD15R,1.500000X0.300000*%
%ADD16R,0.300000X1.500000*%
%ADD17R,5.100000X0.800000*%
%ADD18R,5.100000X1.300000*%
%ADD19R,2.000000X2.000000*%
%ADD20R,1.500000X1.250000*%
%ADD21R,1.250000X1.500000*%
%ADD22R,1.500000X1.300000*%
%ADD23R,1.310000X0.550000*%
%ADD24R,1.310000X0.940000*%
%ADD25R,1.175000X1.900000*%
%ADD26R,2.375000X1.900000*%
%ADD27R,1.475000X2.100000*%
%ADD28R,0.450000X1.380000*%
G04 APERTURE END LIST*
D10*
X142240000Y-58420000D02*
X142240000Y-106680000D01*
X74930000Y-55880000D02*
X139700000Y-55880000D01*
X72390000Y-106680000D02*
X72390000Y-58420000D01*
X139700000Y-109220000D02*
X74930000Y-109220000D01*
X72390000Y-58420000D02*
G75*
G02X74930000Y-55880000I2540000J0D01*
G01*
X74930000Y-109220000D02*
G75*
G02X72390000Y-106680000I0J2540000D01*
G01*
X142240000Y-106680000D02*
G75*
G02X139700000Y-109220000I-2540000J0D01*
G01*
X139700000Y-55880000D02*
G75*
G02X142240000Y-58420000I0J-2540000D01*
G01*
D11*
X86980000Y-64628000D03*
X86980000Y-65928000D03*
X88280000Y-64628000D03*
X88280000Y-65928000D03*
D12*
X86380000Y-63328000D03*
X86880000Y-63328000D03*
X87380000Y-63328000D03*
X87880000Y-63328000D03*
X88380000Y-63328000D03*
X88880000Y-63328000D03*
D13*
X89580000Y-64028000D03*
X89580000Y-64528000D03*
X89580000Y-65028000D03*
X89580000Y-65528000D03*
X89580000Y-66028000D03*
X89580000Y-66528000D03*
D12*
X88880000Y-67228000D03*
X88380000Y-67228000D03*
X87880000Y-67228000D03*
X87380000Y-67228000D03*
X86880000Y-67228000D03*
X86380000Y-67228000D03*
D13*
X85680000Y-66528000D03*
X85680000Y-66028000D03*
X85680000Y-65528000D03*
X85680000Y-65028000D03*
X85680000Y-64528000D03*
X85680000Y-64028000D03*
D14*
X102616000Y-95170000D03*
X102616000Y-97870000D03*
D15*
X106943000Y-88893000D03*
X106943000Y-88393000D03*
X106943000Y-87893000D03*
X106943000Y-87393000D03*
X106943000Y-86893000D03*
X106943000Y-86393000D03*
X106943000Y-85893000D03*
X106943000Y-85393000D03*
X106943000Y-84893000D03*
X106943000Y-84393000D03*
X106943000Y-83893000D03*
X106943000Y-83393000D03*
X106943000Y-82893000D03*
X106943000Y-82393000D03*
X106943000Y-81893000D03*
X106943000Y-81393000D03*
X106943000Y-80893000D03*
X106943000Y-80393000D03*
X106943000Y-79893000D03*
X106943000Y-79393000D03*
X106943000Y-78893000D03*
X106943000Y-78393000D03*
X106943000Y-77893000D03*
X106943000Y-77393000D03*
D16*
X108643000Y-75193000D03*
X109143000Y-75193000D03*
X109643000Y-75193000D03*
X110143000Y-75193000D03*
X110643000Y-75193000D03*
X111143000Y-75193000D03*
X111643000Y-75193000D03*
X112143000Y-75193000D03*
X112643000Y-75193000D03*
X113143000Y-75193000D03*
X113643000Y-75193000D03*
X114143000Y-75193000D03*
X114643000Y-75193000D03*
X115143000Y-75193000D03*
X115643000Y-75193000D03*
X116143000Y-75193000D03*
X116643000Y-75193000D03*
X117143000Y-75193000D03*
X117643000Y-75193000D03*
X118143000Y-75193000D03*
X118643000Y-75193000D03*
X119143000Y-75193000D03*
X119643000Y-75193000D03*
X120143000Y-75193000D03*
D15*
X122343000Y-76893000D03*
X122343000Y-77393000D03*
X122343000Y-77893000D03*
X122343000Y-78393000D03*
X122343000Y-78893000D03*
X122343000Y-79393000D03*
X122343000Y-79893000D03*
X122343000Y-80393000D03*
X122343000Y-80893000D03*
X122343000Y-81393000D03*
X122343000Y-81893000D03*
X122343000Y-82393000D03*
X122343000Y-82893000D03*
X122343000Y-83393000D03*
X122343000Y-83893000D03*
X122343000Y-84393000D03*
X122343000Y-84893000D03*
X122343000Y-85393000D03*
X122343000Y-85893000D03*
X122343000Y-86393000D03*
X122343000Y-86893000D03*
X122343000Y-87393000D03*
X122343000Y-87893000D03*
X122343000Y-88393000D03*
D16*
X120643000Y-90593000D03*
X120143000Y-90593000D03*
X119643000Y-90593000D03*
X119143000Y-90593000D03*
X118643000Y-90593000D03*
X118143000Y-90593000D03*
X117643000Y-90593000D03*
X117143000Y-90593000D03*
X116643000Y-90593000D03*
X116143000Y-90593000D03*
X115643000Y-90593000D03*
X115143000Y-90593000D03*
X114643000Y-90593000D03*
X114143000Y-90593000D03*
X113643000Y-90593000D03*
X113143000Y-90593000D03*
X112643000Y-90593000D03*
X112143000Y-90593000D03*
X111643000Y-90593000D03*
X111143000Y-90593000D03*
X110643000Y-90593000D03*
X110143000Y-90593000D03*
X109643000Y-90593000D03*
X109143000Y-90593000D03*
X108643000Y-90593000D03*
D15*
X122343000Y-88893000D03*
D16*
X120643000Y-75193000D03*
D15*
X106943000Y-76893000D03*
D17*
X92964000Y-105881000D03*
X92964000Y-101981000D03*
D18*
X92964000Y-103931000D03*
D19*
X90678000Y-96774000D03*
X84678000Y-96774000D03*
D20*
X112482000Y-92710000D03*
X109982000Y-92710000D03*
X109220000Y-73025000D03*
X106720000Y-73025000D03*
D21*
X104775000Y-83780000D03*
X104775000Y-81280000D03*
D22*
X84440000Y-102616000D03*
X87140000Y-102616000D03*
X101553000Y-105156000D03*
X98853000Y-105156000D03*
X87140000Y-105156000D03*
X84440000Y-105156000D03*
X98853000Y-102870000D03*
X101553000Y-102870000D03*
D20*
X116880000Y-73025000D03*
X119380000Y-73025000D03*
D21*
X124460000Y-82550000D03*
X124460000Y-85050000D03*
X83566000Y-62484000D03*
X83566000Y-64984000D03*
D20*
X81788000Y-68072000D03*
X79288000Y-68072000D03*
X86360000Y-59436000D03*
X83860000Y-59436000D03*
D23*
X101838000Y-58476000D03*
D24*
X99838000Y-58676000D03*
D23*
X99838000Y-60396000D03*
X101838000Y-60396000D03*
D22*
X96600000Y-63754000D03*
X93900000Y-63754000D03*
D25*
X92240000Y-57658000D03*
X93920000Y-57658000D03*
D26*
X90170000Y-57658000D03*
X95990000Y-57658000D03*
D27*
X90617500Y-59958000D03*
X95542500Y-59958000D03*
D28*
X91780000Y-60318000D03*
X92430000Y-60318000D03*
X93080000Y-60318000D03*
X93730000Y-60318000D03*
X94380000Y-60318000D03*
D14*
X97282000Y-66802000D03*
X97282000Y-69502000D03*
D22*
X88138000Y-69596000D03*
X85438000Y-69596000D03*
X79088000Y-70104000D03*
X81788000Y-70104000D03*
D14*
X93472000Y-66802000D03*
X93472000Y-69502000D03*
M02*
